<svg version="1.0" xmlns="http://www.w3.org/2000/svg"
 width="980.000000pt" height="664.000000pt" viewBox="0 0 980.000000 664.000000"
 preserveAspectRatio="xMidYMid meet">

<g transform="translate(0.000000,664.000000) scale(0.100000,-0.100000)"
fill="#000000" stroke="none">
<path d="M705 6629 c-234 -34 -421 -153 -557 -352 -53 -77 -71 -120 -113 -266
l-35 -123 0 -2571 c0 -2503 1 -2574 20 -2659 67 -304 282 -538 580 -630 l75
-23 4170 -3 c3034 -2 4192 0 4250 8 221 31 414 147 540 325 61 86 80 127 125
277 l40 133 0 2572 0 2573 -31 112 c-36 134 -62 195 -125 289 -104 154 -266
267 -459 322 l-80 22 -4170 1 c-2318 1 -4197 -2 -4230 -7z m7849 -697 c3 -5
-9 -19 -26 -32 -17 -12 -524 -460 -1127 -994 -2143 -1899 -2039 -1809 -2236
-1941 -113 -76 -173 -98 -265 -99 -64 0 -85 4 -140 30 -93 44 -330 226 -615
473 -222 192 -2814 2488 -2865 2537 l-35 34 3652 0 c2009 0 3654 -4 3657 -8z
m-6619 -1581 c649 -568 1188 -1041 1198 -1051 18 -17 -25 -57 -1100 -1026
-615 -555 -1162 -1049 -1216 -1097 l-97 -89 0 2162 c0 2042 1 2162 17 2149 10
-8 548 -479 1198 -1048z m7143 -2170 l-3 -1080 -1205 1086 c-663 597 -1205
1091 -1205 1096 0 5 542 485 1205 1067 l1205 1056 3 -1072 c1 -590 1 -1559 0
-2153z m-5173 438 c331 -290 445 -357 700 -409 335 -70 629 -35 891 104 124
66 184 111 418 316 182 159 209 180 224 168 32 -25 2267 -2011 2302 -2044 l35
-34 -3573 0 -3573 0 1176 1045 c1025 911 1179 1044 1194 1033 9 -7 101 -88
206 -179z"/>
</g>
</svg>