<?xml version="1.0" standalone="no"?>
<!DOCTYPE svg PUBLIC "-//W3C//DTD SVG 20010904//EN"
 "http://www.w3.org/TR/2001/REC-SVG-20010904/DTD/svg10.dtd">
<svg version="1.0" xmlns="http://www.w3.org/2000/svg"
 width="300.000000pt" height="104.000000pt" viewBox="0 0 300.000000 104.000000"
 preserveAspectRatio="xMidYMid meet">
<g transform="translate(0.000000,104.000000) scale(0.100000,-0.100000)"
fill="#FFFFFF" stroke="none">
<path d="M826 1019 c-40 -32 -110 -185 -172 -379 -76 -240 -82 -254 -157 -366
-72 -108 -142 -187 -160 -181 -28 10 4 138 71 291 33 76 33 80 16 93 -10 7
-34 13 -53 13 -35 0 -36 1 -37 41 -1 76 -74 110 -158 75 -111 -46 -205 -254
-167 -369 26 -77 101 -107 165 -68 l31 20 1 -53 c0 -65 21 -100 69 -116 63
-21 118 11 207 120 l37 45 -10 -39 c-13 -46 -6 -56 49 -63 36 -5 45 -2 72 26
36 35 40 37 40 16 0 -31 47 -48 118 -42 98 8 180 48 258 125 l30 31 12 -44
c32 -120 145 -164 264 -104 44 22 113 89 133 130 12 22 22 27 68 32 30 3 69
13 86 21 l31 17 -6 -69 c-5 -52 -3 -75 9 -99 33 -63 124 -69 183 -12 l32 31 7
-41 c4 -23 18 -55 32 -71 61 -74 177 -15 281 142 l27 41 7 -39 c15 -74 45
-104 104 -104 67 0 181 103 279 253 59 91 65 120 28 125 -18 3 -29 -7 -50 -44
-80 -136 -212 -279 -237 -254 -14 14 9 105 58 235 32 84 57 130 107 197 36 47
81 115 100 151 l33 65 76 16 c41 9 96 19 123 22 45 6 47 6 47 -18 0 -30 17
-48 46 -48 55 0 59 71 5 107 -40 27 -79 29 -188 8 -43 -8 -78 -15 -78 -15 0 0
2 24 3 54 5 73 -9 96 -56 96 -20 -1 -46 -8 -57 -18 -28 -24 -76 -88 -108 -143
-30 -53 -34 -55 -116 -65 -60 -6 -61 -6 -61 18 0 30 -17 48 -45 48 -50 0 -61
-61 -19 -101 23 -21 35 -24 103 -24 l77 0 -69 -170 c-53 -133 -85 -195 -145
-285 -86 -128 -164 -216 -182 -205 -22 14 7 121 72 272 22 51 38 100 34 108
-6 16 -78 21 -111 9 -9 -4 -34 -43 -57 -88 -72 -144 -154 -254 -174 -233 -9 9
18 104 58 205 46 115 45 122 -25 122 -50 0 -71 -12 -87 -49 -6 -16 -29 -41
-51 -55 -38 -26 -124 -54 -133 -45 -3 3 4 34 16 69 29 91 31 251 3 297 -63
106 -208 60 -246 -77 -15 -51 -18 -55 -55 -63 -45 -9 -95 -53 -132 -117 -35
-60 -102 -147 -146 -189 -42 -40 -43 -39 -17 20 43 98 35 206 -19 261 -53 53
-125 30 -192 -61 -16 -23 -31 -41 -33 -41 -13 0 32 92 65 135 92 119 172 344
151 422 -17 62 -66 80 -115 42z m25 -226 c-12 -20 -14 -14 -5 12 4 9 9 14 11
11 3 -2 0 -13 -6 -23z m-20 -50 c-12 -20 -14 -14 -5 12 4 9 9 14 11 11 3 -2 0
-13 -6 -23z m689 -121 c11 -49 3 -141 -22 -224 -13 -44 -23 -40 -49 16 -38 84
-12 256 40 256 15 0 22 -11 31 -48z m-1255 -90 c-30 -6 -45 -22 -45 -46 0 -28
18 -46 47 -46 13 0 23 -3 23 -7 0 -13 -71 -126 -107 -170 -41 -52 -73 -57 -73
-14 0 17 12 62 26 102 43 119 109 210 138 191 7 -4 3 -8 -9 -10z m621 -101
c-7 -56 -45 -155 -82 -212 -28 -45 -33 -48 -27 -15 4 18 -2 29 -21 41 -14 9
-30 14 -36 10 -17 -11 -11 4 31 77 48 81 105 148 126 148 13 0 14 -9 9 -49z
m463 -84 c13 -21 39 -48 57 -61 l35 -23 -33 -44 c-43 -55 -117 -96 -148 -79
-60 32 -52 171 16 287 l27 47 11 -45 c7 -25 22 -62 35 -82z m-594 -187 c-3 -5
-14 -10 -23 -9 -14 0 -13 2 3 9 27 11 27 11 20 0z"/>
</g>
</svg>
