<?xml version="1.0" standalone="no"?>
<!DOCTYPE svg PUBLIC "-//W3C//DTD SVG 20010904//EN"
 "http://www.w3.org/TR/2001/REC-SVG-20010904/DTD/svg10.dtd">
<svg version="1.0" xmlns="http://www.w3.org/2000/svg"
 width="300.000000pt" height="83.000000pt" viewBox="0 0 300.000000 83.000000"
 preserveAspectRatio="xMidYMid meet">
<g transform="translate(0.000000,83.000000) scale(0.100000,-0.100000)"
fill="#FFFFFF" stroke="none">
<path d="M1591 805 c-16 -14 -48 -55 -70 -90 -32 -50 -47 -65 -65 -65 -13 0
-38 -3 -55 -6 -26 -6 -31 -3 -31 13 0 45 -53 59 -72 18 -9 -19 -8 -29 6 -49
20 -31 52 -40 112 -33 32 3 44 1 40 -7 -2 -6 -27 -65 -54 -131 -68 -167 -219
-395 -261 -395 -14 0 -10 31 20 129 25 83 24 131 -2 165 -34 44 -109 34 -156
-22 l-21 -25 1 34 c2 33 0 34 -36 37 -42 4 -87 -19 -87 -43 0 -19 -65 -61
-109 -70 -32 -7 -34 -6 -27 16 52 180 39 293 -38 319 -63 21 -127 -22 -150
-100 -10 -35 -19 -44 -49 -55 -51 -18 -58 -24 -130 -133 -125 -188 -257 -273
-257 -167 0 50 42 170 85 243 41 71 48 77 74 62 26 -14 50 -3 57 27 14 55 -59
81 -132 47 -93 -44 -184 -204 -184 -323 0 -86 59 -161 127 -161 37 0 123 52
167 101 47 52 50 52 61 2 8 -40 54 -80 100 -89 66 -12 153 34 201 106 21 31
34 40 67 45 23 4 57 14 76 21 19 8 35 13 37 11 1 -1 -6 -34 -16 -72 -25 -91
-25 -94 7 -106 48 -18 73 3 132 111 49 90 104 161 116 149 2 -3 -7 -52 -21
-109 -28 -113 -26 -151 8 -187 15 -17 33 -23 61 -23 36 0 47 7 97 58 31 31 66
71 78 87 l21 30 1 -31 c0 -17 9 -43 21 -58 44 -55 124 -26 216 78 l42 47 16
-30 c28 -56 70 -71 128 -46 14 6 17 2 17 -21 0 -16 9 -43 19 -61 48 -77 152
-37 236 91 22 33 31 33 38 -2 8 -41 43 -79 83 -92 57 -19 106 1 180 71 l61 60
6 -39 c9 -51 39 -82 80 -82 38 0 107 41 153 91 39 42 124 174 124 193 0 11
-20 26 -35 26 -2 0 -33 -44 -69 -99 -62 -92 -136 -164 -153 -147 -9 9 14 95
53 199 23 60 49 106 79 142 25 29 60 81 79 116 32 59 37 64 82 76 26 6 71 13
99 15 45 3 50 1 53 -19 3 -24 41 -41 61 -28 6 3 11 22 11 41 0 31 -4 37 -37
51 -37 15 -71 14 -173 -3 l-35 -6 3 44 c4 51 -14 78 -53 78 -31 0 -85 -53
-121 -120 -16 -30 -36 -52 -48 -55 -88 -17 -94 -17 -108 12 -24 50 -78 26 -65
-29 9 -33 55 -52 112 -46 25 3 45 3 45 0 0 -3 -24 -64 -52 -136 -78 -195 -199
-346 -279 -349 l-34 -2 1 65 c0 54 7 79 42 153 23 49 52 101 66 117 21 25 26
27 36 15 18 -21 36 -19 54 7 20 29 20 34 -4 58 -61 61 -193 -16 -261 -152 -43
-87 -130 -215 -176 -261 l-38 -39 -3 28 c-5 38 13 105 55 202 40 92 38 102
-23 102 -27 0 -31 3 -27 23 7 34 -33 76 -77 83 -28 5 -43 0 -78 -26 -42 -30
-63 -59 -132 -182 -35 -62 -138 -178 -159 -178 -21 0 -11 59 27 167 30 83 52
126 95 183 32 41 69 99 85 127 25 49 30 53 72 58 25 3 64 10 87 15 57 14 63
13 63 -9 0 -30 26 -46 55 -33 42 19 28 70 -25 92 -30 12 -87 10 -169 -6 l-34
-7 7 37 c15 77 -43 111 -103 61z m-891 -341 c0 -60 -17 -151 -30 -159 -11 -7
-35 39 -43 83 -8 42 9 121 31 145 15 17 17 17 29 1 7 -10 13 -41 13 -70z
m1117 -31 c-4 -3 -10 -3 -14 0 -3 4 0 7 7 7 7 0 10 -3 7 -7z m-41 -38 c-6 -18
31 -46 51 -38 22 8 -14 -59 -67 -124 -53 -67 -75 -70 -66 -10 6 38 72 187 83
187 3 0 3 -7 -1 -15z m-1241 -61 c4 -23 22 -51 51 -80 l45 -45 -20 -25 c-49
-62 -107 -87 -136 -58 -25 25 -17 133 14 197 12 26 26 47 31 47 4 0 11 -16 15
-36z"/>
</g>
</svg>
