<?xml version="1.0" standalone="no"?>
<!DOCTYPE svg PUBLIC "-//W3C//DTD SVG 20010904//EN"
 "http://www.w3.org/TR/2001/REC-SVG-20010904/DTD/svg10.dtd">
<svg version="1.0" xmlns="http://www.w3.org/2000/svg"
 width="300.000000pt" height="108.000000pt" viewBox="0 0 300.000000 108.000000"
 preserveAspectRatio="xMidYMid meet">
 <defs>
      <linearGradient id="Gradient2" x1="0" x2="1" y1="0" y2="0">
        <stop offset="0%" stop-color="rgba(62,35,255,1)"/>
        <stop offset="100%" stop-color="rgba(255,35,98,1)"/>
      </linearGradient>
  </defs>
<g transform="translate(0.000000,108.000000) scale(0.050000,-0.050000)"
fill="url(#Gradient2)" stroke="none">
<path d="M5448 2141 c-50 -21 -142 -127 -183 -213 -45 -95 -220 -124 -255 -43
-29 66 -118 62 -126 -6 -9 -82 58 -128 184 -125 l106 3 -96 -222 c-175 -406
-454 -709 -566 -616 -91 75 169 658 266 598 51 -32 102 -8 102 48 0 161 -283
105 -403 -79 -195 -299 -254 -377 -352 -467 -155 -142 -236 -139 -234 10 2 81
10 103 50 129 318 205 437 564 170 514 -119 -23 -234 -146 -362 -389 -124
-234 -216 -358 -296 -402 -77 -40 -78 -28 -12 176 119 369 73 482 -116 286
-149 -154 -293 -173 -232 -31 61 141 50 400 -19 460 -115 99 -293 13 -325
-158 -11 -61 -22 -74 -63 -74 -86 0 -120 -34 -293 -297 -94 -141 -200 -282
-237 -313 l-66 -56 -7 46 c-7 50 56 238 130 384 26 52 47 103 47 114 0 38
-120 47 -173 12 -88 -58 -144 -27 -133 75 11 117 -49 215 -133 215 -108 0
-139 -159 -54 -282 l46 -68 -87 -112 c-89 -114 -186 -215 -186 -193 0 6 18 54
40 105 135 315 -96 513 -294 253 l-67 -87 6 67 c5 64 2 67 -63 64 -87 -4 -111
-32 -150 -177 -18 -66 -56 -183 -83 -260 l-49 -140 -95 7 c-417 29 -942 -550
-709 -782 269 -269 801 153 1014 804 31 93 38 103 52 66 80 -215 516 -37 709
290 22 39 49 62 65 55 15 -5 43 -10 63 -10 34 0 32 -10 -14 -124 -180 -447
143 -575 400 -159 l44 72 17 -72 c54 -227 356 -230 517 -5 50 69 76 88 121 88
32 0 90 14 130 30 98 41 99 35 36 -144 l-56 -156 -133 0 c-411 0 -904 -546
-683 -758 240 -230 652 8 912 526 56 111 83 144 126 155 101 24 163 67 244
169 44 56 80 91 80 78 0 -252 338 -258 527 -10 l68 90 14 -88 c36 -245 240
-276 460 -70 l129 120 -2 -82 c-3 -248 247 -194 467 102 120 162 110 156 121
68 8 -66 2 -73 -117 -151 -232 -150 -275 -302 -107 -389 209 -108 398 42 416
331 l8 130 119 69 c164 95 195 131 151 175 -31 31 -37 30 -89 -18 -30 -28 -88
-71 -129 -95 l-74 -44 -20 76 c-49 186 -49 185 7 287 85 158 44 272 -82 228
-101 -35 -152 -139 -142 -289 9 -129 8 -132 -91 -276 -101 -147 -238 -276
-272 -256 -47 30 107 434 220 577 41 52 107 148 146 213 78 128 92 135 295
155 119 11 133 9 130 -23 -5 -56 60 -86 100 -45 28 28 30 42 11 85 -41 89
-114 101 -357 58 l-64 -12 12 85 c15 113 -33 158 -127 120z m-2420 -453 c34
-88 -11 -417 -55 -403 -40 14 -77 159 -64 254 18 136 89 226 119 149z m1152
-119 c0 -43 -69 -152 -140 -219 l-85 -80 35 70 c70 139 190 284 190 229z
m-2723 -220 c-42 -155 -170 -369 -220 -369 -35 0 -15 36 25 46 57 15 44 98
-17 113 -45 11 -44 13 36 136 130 198 221 236 176 74z m1394 -156 l70 -68 -80
-72 c-85 -77 -172 -110 -203 -79 -60 60 -29 289 57 421 l32 49 27 -91 c16 -54
56 -120 97 -160z m2660 -308 c-21 -126 -80 -205 -151 -205 -127 0 -100 132 48
234 113 78 121 76 103 -29z m-4671 -90 c0 -94 -269 -458 -410 -555 -331 -227
-454 63 -142 336 202 177 552 316 552 219z m2300 -26 c0 -18 -121 -232 -181
-319 -180 -264 -479 -405 -566 -267 -75 120 263 485 524 566 94 29 223 40 223
20z"/>
<path d="M3403 1668 c-67 -47 -54 -156 21 -164 99 -12 170 99 105 165 -40 39
-68 39 -126 -1z"/>
</g>
</svg>
