<?xml version="1.0" standalone="no"?>
<!DOCTYPE svg PUBLIC "-//W3C//DTD SVG 20010904//EN"
 "http://www.w3.org/TR/2001/REC-SVG-20010904/DTD/svg10.dtd">
<svg version="1.0" xmlns="http://www.w3.org/2000/svg"
 width="300.000000pt" height="37.000000pt" viewBox="0 0 300.000000 37.000000"
 preserveAspectRatio="xMidYMid meet">
<defs>
      <linearGradient id="Gradient2" x1="0" x2="1" y1="0" y2="0">
        <stop offset="0%" stop-color="rgba(62,35,255,1)"/>
        <stop offset="100%" stop-color="rgba(255,35,98,1)"/>
      </linearGradient>
  </defs>
<g transform="translate(0.000000,37.000000) scale(0.100000,-0.100000)"
 fill="url(#Gradient2)" stroke="none">
<path d="M1210 338 c-11 -18 -30 -62 -41 -98 -26 -79 -55 -112 -134 -151 -108
-53 -291 -48 -440 11 -162 65 -382 78 -572 35 -34 -8 -29 -29 5 -22 16 3 77
11 136 17 163 18 279 1 466 -66 57 -20 101 -28 181 -32 126 -6 186 6 264 53
52 32 56 33 49 12 -12 -37 -10 -51 8 -55 11 -2 28 15 52 52 20 31 42 56 50 56
22 0 7 -40 -20 -52 -26 -12 -32 -28 -10 -28 7 0 17 -15 22 -32 14 -49 48 -50
75 -3 18 31 24 34 31 21 16 -28 68 -20 105 16 l33 32 0 -26 c0 -21 16 -38 35
-38 3 0 20 14 40 31 19 17 33 25 30 16 -6 -14 18 -47 35 -47 5 0 25 14 45 31
30 27 35 28 35 12 0 -50 64 -58 106 -13 l28 29 13 -29 c10 -25 18 -30 45 -30
18 0 42 7 52 15 27 20 46 19 160 -10 124 -31 187 -31 362 0 192 35 363 55 461
55 55 0 83 4 83 11 0 24 -280 4 -505 -36 -231 -40 -274 -41 -405 -6 -88 24
-136 26 -170 6 -65 -37 -68 9 -4 71 35 35 45 50 42 72 -2 15 -10 28 -19 30
-23 4 -72 -40 -102 -91 -34 -58 -82 -101 -102 -93 -24 9 -11 37 36 85 31 31
40 46 37 68 -2 23 -7 28 -27 25 -33 -3 -55 -24 -90 -86 -30 -54 -67 -93 -78
-83 -10 11 27 98 69 161 41 63 54 97 44 121 -16 43 -65 -12 -108 -122 -31 -80
-98 -176 -112 -162 -9 9 33 120 54 144 48 54 73 142 43 152 -20 7 -51 -38 -90
-129 -39 -92 -105 -178 -136 -178 -32 0 -18 41 29 86 35 35 45 50 42 72 -8 72
-90 7 -132 -105 -15 -40 -32 -75 -36 -78 -5 -3 -15 7 -23 22 -14 25 -13 28 10
46 17 14 23 27 21 46 -4 38 -42 40 -80 4 -30 -27 -30 -28 -23 -4 4 13 20 45
36 70 38 60 54 118 38 137 -17 21 -27 17 -49 -18z m30 -41 c0 -7 -7 -22 -15
-33 -13 -17 -13 -16 -3 14 13 34 18 40 18 19z m190 -86 c0 -6 -12 -23 -26 -38
-24 -27 -25 -27 -13 -3 20 41 39 62 39 41z m334 -40 l-27 -26 15 25 c8 14 18
32 23 40 7 11 10 11 13 1 2 -7 -8 -25 -24 -40z m176 40 c0 -12 -41 -63 -47
-57 -5 5 35 66 43 66 2 0 4 -4 4 -9z"/>
</g>
</svg>
