<?xml version="1.0" standalone="no"?>
<!DOCTYPE svg PUBLIC "-//W3C//DTD SVG 20010904//EN"
 "http://www.w3.org/TR/2001/REC-SVG-20010904/DTD/svg10.dtd">
<svg version="1.0" xmlns="http://www.w3.org/2000/svg"
 width="300.000000pt" height="123.000000pt" viewBox="0 0 300.000000 123.000000"
 preserveAspectRatio="xMidYMid meet">
<g transform="translate(0.000000,123.000000) scale(0.050000,-0.050000)"
fill="#5c5c5c" stroke="none">
<path d="M3140 2418 c-146 -84 -351 -452 -590 -1058 -202 -511 -575 -960 -797
-960 -146 0 -141 310 7 408 546 361 674 1031 150 785 -182 -86 -490 -494 -490
-650 0 -101 -313 -763 -361 -763 -7 0 -33 54 -58 121 -24 66 -70 151 -102 187
l-59 67 59 24 c166 69 298 280 270 431 -55 291 -392 255 -648 -69 -88 -111
-90 -99 -23 114 43 138 77 205 137 275 209 237 409 765 365 962 -58 255 -274
174 -432 -162 -209 -445 -609 -1757 -553 -1813 98 -98 255 -29 357 158 208
377 441 625 490 519 54 -120 -121 -374 -259 -374 -100 0 -138 -103 -48 -132
154 -50 168 -69 205 -267 66 -354 380 -272 580 151 l62 132 44 -87 c148 -294
555 -189 857 222 l50 68 -8 -118 c-23 -359 291 -384 601 -50 l114 123 0 -96
c0 -343 310 -350 617 -14 l123 134 0 -78 c3 -480 619 -455 916 37 46 78 58 69
68 -50 36 -428 434 -468 796 -81 179 192 425 553 416 611 -16 113 -86 66 -247
-169 -395 -573 -752 -741 -700 -330 l14 113 169 132 c335 262 496 583 359 720
-142 142 -488 -53 -659 -372 -359 -668 -876 -1053 -871 -649 2 116 46 184 202
308 357 285 512 639 323 739 -178 94 -489 -121 -663 -458 -215 -416 -603 -832
-603 -646 0 149 216 721 320 847 299 361 527 866 458 1010 -156 326 -529 -173
-909 -1220 -76 -208 -462 -690 -553 -690 -111 0 129 706 323 950 129 163 289
433 372 630 130 306 29 506 -191 378z m49 -361 c-48 -114 -129 -252 -104 -177
26 78 142 320 149 313 5 -5 -16 -66 -45 -136z m720 0 c-48 -114 -129 -252
-104 -177 26 78 142 320 149 313 5 -5 -16 -66 -45 -136z m-3105 -150 c-60
-163 -122 -292 -123 -257 -1 18 29 99 141 388 49 124 32 8 -18 -131z m1292
-502 c-26 -93 -106 -209 -224 -324 -118 -115 -116 -87 9 121 151 251 256 350
215 203z m2424 40 c-2 -92 -278 -474 -316 -436 -25 26 255 471 297 471 10 0
19 -16 19 -35z m980 1 c0 -88 -258 -446 -322 -446 -24 0 46 137 148 290 127
191 174 233 174 156z"/>
</g>
</svg>
